<?xml version="1.0" encoding="UTF-8"?>
<svg version="1.1" xmlns="http://www.w3.org/2000/svg" width="231" height="246">
<path d="M0 0 C1.05324463 0.49282471 2.10648926 0.98564941 3.19165039 1.4934082 C9.74522798 4.57564784 16.25232947 7.74661417 22.70947266 11.02587891 C27.3897559 13.40187313 32.11783671 15.65732241 36.875 17.875 C83.37024594 39.61504339 83.37024594 39.61504339 92.6875 63.625 C99.33887365 81.99443387 97.39382899 98.38285275 89.375 115.875 C87.62771915 118.8347739 85.67269928 121.32905683 83.375 123.875 C82.84132812 124.53628906 82.30765625 125.19757813 81.7578125 125.87890625 C71.45810808 138.38569019 56.96717591 146.45890083 40.83203125 148.2734375 C24.69318117 149.47130601 8.49656947 149.13590487 -7.625 147.875 C-7.90248242 146.46345901 -8.14593516 145.04520201 -8.375 143.625 C-8.58382812 142.44164062 -8.58382812 142.44164062 -8.796875 141.234375 C-8.5541955 137.90304736 -7.07754486 137.07345473 -4.625 134.875 C3.69140334 128.72654033 11.14284672 128.08714557 21.25 128.25 C37.00850667 128.40966066 51.62147384 125.76603305 63.48828125 114.78515625 C72.41840792 105.74409633 74.87457072 96.76085393 74.79907227 84.28027344 C74.48378719 74.72193386 71.99370866 66.8614147 65.375 59.875 C65.375 59.215 65.375 58.555 65.375 57.875 C64.83875 57.648125 64.3025 57.42125 63.75 57.1875 C61.375 55.875 61.375 55.875 58.90625 53.625 C54.6048067 49.99856249 49.57933306 47.89291964 44.5 45.5625 C42.43700286 44.59611264 40.37450491 43.62865895 38.3125 42.66015625 C36.79849609 41.95270264 36.79849609 41.95270264 35.25390625 41.23095703 C31.30929225 39.37305454 27.39809998 37.45332422 23.5 35.5 C22.85417969 35.17700928 22.20835937 34.85401855 21.54296875 34.52124023 C18.14288976 32.80733199 14.80349939 31.01762986 11.5 29.125 C7.80597694 27.02310786 4.02066687 25.49396555 0.0546875 23.98046875 C-2.99180912 22.72367787 -5.88295184 21.25860772 -8.8125 19.75 C-18.2234675 14.99650111 -26.08461872 13.1929331 -36.25 16.4375 C-43.20689298 19.22025719 -47.63234414 23.26655689 -50.76953125 30.08862305 C-52.67757493 34.5701708 -53.28351732 38.43280931 -53.375 43.26953125 C-53.41838501 44.51981865 -53.41838501 44.51981865 -53.46264648 45.79536438 C-53.88545422 60.37411871 -53.69031742 74.97942653 -53.625 89.5625 C-53.60119993 94.92549576 -53.58093786 100.28846234 -53.56906128 105.65149879 C-53.56266999 107.76792695 -53.55018163 109.88425875 -53.53735352 112.00065613 C-53.48983015 130.64872502 -53.48983015 130.64872502 -57.05859375 134.50390625 C-58.04988281 135.14199219 -59.04117188 135.78007812 -60.0625 136.4375 C-61.05121094 137.09878906 -62.03992188 137.76007813 -63.05859375 138.44140625 C-65.625 139.875 -65.625 139.875 -67.625 139.875 C-67.99625 141.0815625 -67.99625 141.0815625 -68.375 142.3125 C-69.625 144.875 -69.625 144.875 -71.6875 145.75 C-72.326875 145.79125 -72.96625 145.8325 -73.625 145.875 C-75.17867331 144.32132669 -74.75412518 142.8462916 -74.75871277 140.68397522 C-74.76297775 139.77990936 -74.76724274 138.87584351 -74.77163696 137.94438171 C-74.77118378 136.94445694 -74.77073059 135.94453217 -74.77026367 134.91430664 C-74.77362228 133.86708435 -74.7769809 132.81986206 -74.78044128 131.74090576 C-74.78999051 128.25564405 -74.79189691 124.77043025 -74.79296875 121.28515625 C-74.79618049 118.86673462 -74.79954449 116.44831318 -74.80305481 114.02989197 C-74.80905734 108.94627431 -74.81089375 103.86267368 -74.81030273 98.77905273 C-74.81020148 92.27932555 -74.82381027 85.77970852 -74.84107494 79.28000736 C-74.85222535 74.27755742 -74.85422094 69.27513375 -74.85369301 64.27267265 C-74.85487021 61.87780823 -74.85927736 59.48294307 -74.86702538 57.0880909 C-74.87687879 53.72539859 -74.87392519 50.36294064 -74.86791992 47.00024414 C-74.87353943 46.01853745 -74.87915894 45.03683075 -74.88494873 44.02537537 C-74.82515885 30.77671244 -71.39284229 19.06317811 -62.625 8.875 C-61.00167033 7.48923077 -59.33775535 6.14858732 -57.625 4.875 C-57.068125 4.235625 -56.51125 3.59625 -55.9375 2.9375 C-39.83478713 -11.42437904 -17.77591021 -8.48705404 0 0 Z " fill="#CED1FA" transform="translate(109.625,26.125)"/>
<path d="M0 0 C0.69907471 0.39952881 1.39814941 0.79905762 2.1184082 1.21069336 C7.49862207 4.29602927 12.83831655 7.44433895 18.125 10.6875 C19.18589844 11.3371875 20.24679688 11.986875 21.33984375 12.65625 C23.59053556 14.03474616 25.83176415 15.42578443 28.0703125 16.82421875 C29.86768675 17.92057107 31.68869559 18.98203547 33.5546875 19.95703125 C39.45815023 23.10925757 42.10770301 27.33949204 44.125 33.6875 C45.29727458 39.97166046 44.31375334 45.19194802 40.91015625 50.60546875 C37.385731 54.71601286 32.79578997 57.0644948 28.125 59.6875 C26.50344641 60.66202974 24.8820739 61.63688413 23.26489258 62.61865234 C21.41984578 63.7360427 19.56810577 64.8416043 17.71484375 65.9453125 C14.0748751 68.11582157 10.44477674 70.30234716 6.81640625 72.4921875 C5.70410645 73.1625 4.59180664 73.8328125 3.44580078 74.5234375 C1.2231593 75.86298878 -0.99855048 77.20408743 -3.21923828 78.546875 C-4.25161621 79.16820312 -5.28399414 79.78953125 -6.34765625 80.4296875 C-7.26812744 80.9851123 -8.18859863 81.54053711 -9.13696289 82.11279297 C-11.99761049 83.75801606 -14.91577835 85.2285603 -17.875 86.6875 C-19.13843469 87.43610992 -20.39020732 88.20503392 -21.625 89 C-31.4606325 95.23541985 -41.53280059 101.17005963 -51.77441406 106.71606445 C-57.04459806 109.6067179 -59.64353473 112.4856903 -61.8125 118.125 C-61.90567393 121.94513097 -60.71559937 124.37442113 -58.875 127.6875 C-56.56086633 129.80327936 -55.05015774 130.61258955 -51.9140625 130.8125 C-48.21662556 130.5925781 -46.53067484 130.25890677 -43.65625 127.75390625 C-40.74745966 122.7464492 -41.39732042 117.57079791 -41.47460938 111.90429688 C-41.39058577 105.25654722 -41.39058577 105.25654722 -38.65234375 102.234375 C-37.73582031 101.72390625 -36.81929687 101.2134375 -35.875 100.6875 C-34.6375 99.97013672 -34.6375 99.97013672 -33.375 99.23828125 C-32.1375 98.62533203 -32.1375 98.62533203 -30.875 98 C-30.05 97.58363281 -29.225 97.16726562 -28.375 96.73828125 C-25.87035852 95.68554913 -23.55024265 95.12222693 -20.875 94.6875 C-18.58547978 99.26654044 -19.55429747 105.53751641 -19.5 110.5625 C-19.44392578 112.47289062 -19.44392578 112.47289062 -19.38671875 114.421875 C-19.29537281 124.34813334 -21.0957943 133.09441949 -27.25 141.125 C-34.38995777 148.09495878 -41.5844759 151.442193 -51.77734375 151.78515625 C-60.14409618 151.30403865 -67.77351982 148.59215824 -73.875 142.6875 C-73.875 142.0275 -73.875 141.3675 -73.875 140.6875 C-74.535 140.6875 -75.195 140.6875 -75.875 140.6875 C-81.95532966 133.71071148 -83.21335405 125.46189563 -82.6875 116.5 C-81.68821617 107.69732 -78.12923965 100.92085738 -71.875 94.6875 C-64.96136204 89.55529022 -57.49026873 85.37284464 -49.8984375 81.33203125 C-39.49457282 75.6730816 -29.36759559 69.48407947 -19.40356445 63.08691406 C-15.6480214 60.69950784 -11.83978515 58.63066559 -7.84155273 56.67919922 C-4.69320084 55.09153871 -1.69626031 53.2726448 1.3125 51.4375 C2.26491577 50.86140991 2.26491577 50.86140991 3.23657227 50.27368164 C9.55359729 46.44582327 15.84427096 42.57456165 22.125 38.6875 C14.76929123 33.02161621 6.4576211 28.70706369 -1.63769531 24.19873047 C-7.76571229 20.77884122 -13.82042928 17.23544558 -19.875 13.6875 C-19.86611755 14.24238098 -19.85723511 14.79726196 -19.8480835 15.36895752 C-19.75959407 21.14381611 -19.69925947 26.91848216 -19.65527344 32.69384766 C-19.63515724 34.84920067 -19.60786075 37.00449911 -19.57324219 39.15966797 C-19.52472514 42.25762395 -19.50203127 45.35485846 -19.484375 48.453125 C-19.46372986 49.41679993 -19.44308472 50.38047485 -19.42181396 51.37335205 C-19.41957041 58.06137541 -19.41957041 58.06137541 -21.70605469 61.20483398 C-24.52772097 63.13369253 -27.3718851 64.86412892 -30.375 66.5 C-32.06109375 67.43779297 -32.06109375 67.43779297 -33.78125 68.39453125 C-37.06223041 69.76574907 -37.68331737 69.71358283 -40.875 68.6875 C-41.12077855 60.91431977 -41.33275431 53.14072779 -41.52197266 45.3659668 C-41.59015454 42.72480729 -41.66588769 40.08383092 -41.74951172 37.44311523 C-41.86882838 33.63288864 -41.96038319 29.82281514 -42.046875 26.01171875 C-42.08939392 24.84356125 -42.13191284 23.67540375 -42.17572021 22.47184753 C-42.34517146 13.13057495 -40.97342168 4.72238095 -34.5 -2.375 C-23.62482457 -12.00598163 -10.95571283 -6.34886043 0 0 Z " fill="#CED1F9" transform="translate(117.875,73.3125)"/>
<path d="M0 0 C6.97794943 0.39952721 11.66405325 1.91110706 17.6875 5.375 C19.12865801 6.17492656 20.57005979 6.97441412 22.01171875 7.7734375 C22.68944336 8.1542749 23.36716797 8.5351123 24.06542969 8.92749023 C29.78099038 12.11554373 29.78099038 12.11554373 36 14 C35.67 14.99 35.34 15.98 35 17 C30.16173386 15.16851059 25.53764289 12.91829594 20.875 10.6875 C13.947017 7.38767086 7.00544501 4.13277204 0 1 C0 0.67 0 0.34 0 0 Z " fill="#D4D7ED" transform="translate(123,56)"/>
<path d="M0 0 C2.5400663 4.790073 2.188445 8.66857679 2 14 C2.07734375 15.17369141 2.07734375 15.17369141 2.15625 16.37109375 C2.19231976 18.97262528 2.03936438 20.59915418 1 23 C-7.360601 31 -7.360601 31 -12 31 C-12.495 32.485 -12.495 32.485 -13 34 C-13.33 32.68 -13.66 31.36 -14 30 C-9.25 26 -9.25 26 -7 26 C-7 25.34 -7 24.68 -7 24 C-5.35 23.67 -3.7 23.34 -2 23 C-1.19347492 20.11832319 -0.82484994 17.43968453 -0.68359375 14.453125 C-0.64169922 13.60878906 -0.59980469 12.76445312 -0.55664062 11.89453125 C-0.51732422 11.02183594 -0.47800781 10.14914063 -0.4375 9.25 C-0.39431641 8.36183594 -0.35113281 7.47367188 -0.30664062 6.55859375 C-0.20086385 4.37254037 -0.09877454 2.18637911 0 0 Z " fill="#D5D7EE" transform="translate(54,135)"/>
<path d="M0 0 C0.33 0.66 0.66 1.32 1 2 C0.34 2 -0.32 2 -1 2 C-0.67 4.64 -0.34 7.28 0 10 C11.22 10 22.44 10 34 10 C34 10.66 34 11.32 34 12 C21.94723146 12.11114233 10.02039864 11.94014291 -2 11 C-2.33 8.03 -2.66 5.06 -3 2 C-2.01 1.34 -1.02 0.68 0 0 Z " fill="#D3D4EF" transform="translate(104,163)"/>
<path d="M0 0 C1.32 0 2.64 0 4 0 C4 9.9 4 19.8 4 30 C3.67 30 3.34 30 3 30 C3 20.76 3 11.52 3 2 C-3.49751884 5.3056624 -3.49751884 5.3056624 -6.1875 8.1875 C-8.14688964 10.14688964 -9.29768441 10.61395492 -12 11 C-11.8125 8.671875 -11.8125 8.671875 -11 6 C-8.75 4.453125 -8.75 4.453125 -6 3.25 C-2.76765106 1.97573005 -2.76765106 1.97573005 0 0 Z " fill="#CACCEA" transform="translate(93,168)"/>
<path d="M0 0 C2 2 2 2 2.23046875 5.37890625 C2.22812178 6.77350908 2.21311958 8.16813054 2.1875 9.5625 C2.17960449 10.28252197 2.17170898 11.00254395 2.16357422 11.74438477 C2.08139338 16.88763208 1.8904907 21.92420299 1 27 C0.34 27.33 -0.32 27.66 -1 28 C-1.02886338 23.52084672 -1.04675187 19.04171709 -1.0625 14.5625 C-1.07087891 13.28310547 -1.07925781 12.00371094 -1.08789062 10.68554688 C-1.09111328 9.47060547 -1.09433594 8.25566406 -1.09765625 7.00390625 C-1.10289307 5.87799072 -1.10812988 4.7520752 -1.11352539 3.59204102 C-1 1 -1 1 0 0 Z " fill="#D4D7F0" transform="translate(54,63)"/>
<path d="M0 0 C1.28583984 0.02707031 2.57167969 0.05414063 3.89648438 0.08203125 C7.03696302 0.1520791 10.1737993 0.250258 13.3125 0.375 C13.3125 0.705 13.3125 1.035 13.3125 1.375 C12.44447754 1.4251123 11.57645508 1.47522461 10.68212891 1.52685547 C7.46499064 1.71701201 4.24850492 1.91548099 1.03222656 2.11962891 C-0.36047292 2.20630741 -1.75338355 2.28965944 -3.14648438 2.36962891 C-5.14765842 2.48508125 -7.14807409 2.61345124 -9.1484375 2.7421875 C-10.95513916 2.85216064 -10.95513916 2.85216064 -12.79833984 2.96435547 C-15.81030103 3.09742252 -15.81030103 3.09742252 -17.6875 5.375 C-18.6775 5.375 -19.6675 5.375 -20.6875 5.375 C-20.6875 6.035 -20.6875 6.695 -20.6875 7.375 C-21.6775 7.705 -22.6675 8.035 -23.6875 8.375 C-24.3475 7.715 -25.0075 7.055 -25.6875 6.375 C-17.11138939 0.47885472 -10.25375316 -0.41461521 0 0 Z " fill="#D4D6EE" transform="translate(130.6875,154.625)"/>
<path d="M0 0 C0.66 0.99 1.32 1.98 2 3 C-1.1086182 8.72640195 -5.12250936 13.06125468 -11 16 C-11.99 16 -12.98 16 -14 16 C-13.27425781 15.29488281 -12.54851562 14.58976563 -11.80078125 13.86328125 C-9.0629944 11.1254944 -6.62014413 8.20107407 -4.1875 5.1875 C-3.39730469 4.21167969 -2.60710937 3.23585937 -1.79296875 2.23046875 C-1.20128906 1.49441406 -0.60960937 0.75835937 0 0 Z M-15 18 C-14.34 18.66 -13.68 19.32 -13 20 C-13.66 20 -14.32 20 -15 20 C-15 19.34 -15 18.68 -15 18 Z " fill="#D4D7F1" transform="translate(181,131)"/>
<path d="M0 0 C0.33 0 0.66 0 1 0 C1.33 11.22 1.66 22.44 2 34 C3.485 33.505 3.485 33.505 5 33 C5 34.65 5 36.3 5 38 C3.0625 38.5625 3.0625 38.5625 1 39 C0 38 0 38 -0.11352539 34.39819336 C-0.11336625 32.79540144 -0.10767063 31.1926044 -0.09765625 29.58984375 C-0.0962413 28.74780899 -0.09482635 27.90577423 -0.09336853 27.03822327 C-0.08775263 24.33794665 -0.07519748 21.63775172 -0.0625 18.9375 C-0.05748705 17.11132932 -0.05292379 15.28515734 -0.04882812 13.45898438 C-0.03777804 8.97262458 -0.02050279 4.48632616 0 0 Z " fill="#CBD1E7" transform="translate(35,133)"/>
<path d="M0 0 C-0.70125 0.33 -1.4025 0.66 -2.125 1 C-7.73944044 4.9056977 -11.34010018 10.36040074 -13 17 C-15 14 -15 14 -14.83203125 11.57421875 C-13.89174938 8.66508377 -12.72942753 7.07304933 -10.6875 4.8125 C-10.09324219 4.13832031 -9.49898438 3.46414062 -8.88671875 2.76953125 C-5.74930349 -0.1730135 -4.20493148 -1.40164383 0 0 Z " fill="#D1D4EF" transform="translate(93,68)"/>
<path d="M0 0 C1.98 0 3.96 0 6 0 C6.33 0.66 6.66 1.32 7 2 C7.99 2.33 8.98 2.66 10 3 C10 3.66 10 4.32 10 5 C10.99 4.67 11.98 4.34 13 4 C13.66 4.33 14.32 4.66 15 5 C15 5.66 15 6.32 15 7 C17.475 7.495 17.475 7.495 20 8 C20 8.66 20 9.32 20 10 C20.99 10.33 21.98 10.66 23 11 C22.01 11.495 22.01 11.495 21 12 C15.89207399 10.0995232 11.25688243 7.55958305 6.5625 4.8125 C5.92634766 4.44447266 5.29019531 4.07644531 4.63476562 3.69726562 C3.08781915 2.80166504 1.54361338 1.9013332 0 1 C0 0.67 0 0.34 0 0 Z " fill="#CFD2ED" transform="translate(100,87)"/>
<path d="M0 0 C0.66 0 1.32 0 2 0 C0.05016231 5.84951306 -6.75747041 9.36168591 -11.875 12.5 C-15 14 -15 14 -18 13 C-16.29356132 9.58712264 -12.46676025 9.15558675 -9 8 C-9 7.34 -9 6.68 -9 6 C-7.28515625 4.74609375 -7.28515625 4.74609375 -5.0625 3.4375 C-2.37294547 1.9249593 -2.37294547 1.9249593 0 0 Z " fill="#D1D4EC" transform="translate(185,155)"/>
<path d="M0 0 C0.33 0 0.66 0 1 0 C2.43377448 8.22346683 3.41095583 15.72493475 2 24 C1.34 24 0.68 24 0 24 C-0.1958009 22.08416353 -0.38132214 20.16727461 -0.5625 18.25 C-0.66691406 17.18265625 -0.77132812 16.1153125 -0.87890625 15.015625 C-0.98670322 12.33113274 -0.72637151 10.53944055 0 8 C-0.165 7.34 -0.33 6.68 -0.5 6 C-1.08662023 3.65351906 -0.73092672 2.27399422 0 0 Z " fill="#D6D9ED" transform="translate(204,98)"/>
<path d="M0 0 C1.36125 0.12375 1.36125 0.12375 2.75 0.25 C0.192172 3.23413266 -2.75573934 4.53852539 -6.25 6.25 C-7.60863401 7.21534522 -8.95343137 8.20277149 -10.25 9.25 C-10.91 8.92 -11.57 8.59 -12.25 8.25 C-11.92 7.26 -11.59 6.27 -11.25 5.25 C-10.651875 5.105625 -10.05375 4.96125 -9.4375 4.8125 C-7.05329604 4.41285032 -7.05329604 4.41285032 -5.375 2.1875 C-3.25 0.25 -3.25 0.25 0 0 Z " fill="#D6D7F0" transform="translate(106.25,153.75)"/>
<path d="M0 0 C5.19644079 1.59890486 10.06612142 3.74138003 15 6 C14.67 6.66 14.34 7.32 14 8 C12.02 8 10.04 8 8 8 C8 7.34 8 6.68 8 6 C5.66785852 4.79371992 3.50357861 3.8345262 1 3 C0.67 2.01 0.34 1.02 0 0 Z " fill="#D5D6F1" transform="translate(134,39)"/>
<path d="M0 0 C-4.29 2.64 -8.58 5.28 -13 8 C-13 5 -13 5 -11.3125 2.9375 C-7.2825906 -0.43891058 -5.17065531 -1.29266383 0 0 Z " fill="#D7D9ED" transform="translate(90,166)"/>
<path d="M0 0 C0.99 0.33 1.98 0.66 3 1 C-1.49101628 5.04191465 -6.58984989 7.43674441 -12 10 C-11.67 9.01 -11.34 8.02 -11 7 C-10.34 7 -9.68 7 -9 7 C-8.67 6.01 -8.34 5.02 -8 4 C-6.67511887 3.63451555 -5.33981486 3.3062434 -4 3 C-3.319375 2.46375 -2.63875 1.9275 -1.9375 1.375 C-1.298125 0.92125 -0.65875 0.4675 0 0 Z " fill="#D5D8EC" transform="translate(128,140)"/>
<path d="M0 0 C-0.6875 2.375 -0.6875 2.375 -2 5 C-4.375 6.1875 -4.375 6.1875 -7 7 C-8.34050052 7.65213539 -9.67661368 8.31379969 -11 9 C-10.42655063 6.13275314 -10.1385485 5.1385485 -8 3 C-6.68 3 -5.36 3 -4 3 C-4 2.34 -4 1.68 -4 1 C-2 0 -2 0 0 0 Z " fill="#D5D7EE" transform="translate(97,131)"/>
<path d="M0 0 C1.485 0.99 1.485 0.99 3 2 C3.4670898 7.51165965 2.73883423 11.78349732 1 17 C0.67 17 0.34 17 0 17 C0 11.39 0 5.78 0 0 Z " fill="#DCE1F4" transform="translate(77,178)"/>
<path d="M0 0 C3.2045716 1.03004087 4.63327691 2.60838543 6.375 5.375 C8 9 8 9 7.25 11.4375 C6.8375 11.953125 6.425 12.46875 6 13 C5.7525 11.72125 5.505 10.4425 5.25 9.125 C4.48009414 5.73252682 4.48009414 5.73252682 1.875 3.5 C1.25625 3.335 0.6375 3.17 0 3 C0 2.01 0 1.02 0 0 Z " fill="#D8DAEE" transform="translate(153,95)"/>
<path d="M0 0 C3.11547441 0.67883043 5.85137721 1.74106902 8.75 3.0625 C9.54921875 3.42472656 10.3484375 3.78695312 11.171875 4.16015625 C11.77515625 4.43730469 12.3784375 4.71445312 13 5 C12.01 6.32 11.02 7.64 10 9 C9.34 8.01 8.68 7.02 8 6 C6.0533929 4.78581167 6.0533929 4.78581167 3.875 3.8125 C3.15054688 3.46832031 2.42609375 3.12414063 1.6796875 2.76953125 C1.12539062 2.51558594 0.57109375 2.26164062 0 2 C0 1.34 0 0.68 0 0 Z " fill="#D1D4EE" transform="translate(152,48)"/>
<path d="M0 0 C0.33 0 0.66 0 1 0 C1.33 3.96 1.66 7.92 2 12 C4.97 12.495 4.97 12.495 8 13 C6.25 14.5625 6.25 14.5625 4 16 C2.68 15.67 1.36 15.34 0 15 C0 10.05 0 5.1 0 0 Z " fill="#E9EAF3" transform="translate(77,127)"/>
<path d="M0 0 C0.99 0 1.98 0 3 0 C7.07877462 6.89715536 7.07877462 6.89715536 6.75 11.5 C6.5025 12.325 6.255 13.15 6 14 C4.2235138 11.33527069 3.38056987 9.43458592 2.4375 6.4375 C1.72381407 4.18550657 1.05677648 2.11355296 0 0 Z " fill="#D6D8EE" transform="translate(179,90)"/>
<path d="M0 0 C0.57234375 0.22558594 1.1446875 0.45117188 1.734375 0.68359375 C0.8475 1.26109375 -0.039375 1.83859375 -0.953125 2.43359375 C-3.85604744 4.36427851 -6.57331149 6.46639439 -9.265625 8.68359375 C-9.595625 7.69359375 -9.925625 6.70359375 -10.265625 5.68359375 C-9.02827516 4.64746342 -7.77517863 3.63011573 -6.515625 2.62109375 C-5.81953125 2.05261719 -5.1234375 1.48414063 -4.40625 0.8984375 C-2.265625 -0.31640625 -2.265625 -0.31640625 0 0 Z " fill="#DDDDF1" transform="translate(70.265625,42.31640625)"/>
<path d="M0 0 C4.29 0 8.58 0 13 0 C13 0.99 13 1.98 13 3 C8.71 2.67 4.42 2.34 0 2 C0 1.34 0 0.68 0 0 Z " fill="#D6D6F1" transform="translate(79,38)"/>
<path d="M0 0 C2.74089824 2.36713939 4.02493482 4.50601646 5 8 C4.625 11.3125 4.625 11.3125 4 14 C1.01646031 9.52469046 0.71443639 5.30724173 0 0 Z " fill="#CDD2E9" transform="translate(199,86)"/>
<path d="M0 0 C1.98 0 3.96 0 6 0 C6.33 0.66 6.66 1.32 7 2 C7.99 2.33 8.98 2.66 10 3 C10 3.66 10 4.32 10 5 C10.66 5.33 11.32 5.66 12 6 C8.55639368 6 7.25204608 5.20408468 4.3125 3.5 C3.50425781 3.0359375 2.69601563 2.571875 1.86328125 2.09375 C1.24839844 1.7328125 0.63351563 1.371875 0 1 C0 0.67 0 0.34 0 0 Z " fill="#D9DCEF" transform="translate(100,87)"/>
<path d="M0 0 C4.95 0.99 4.95 0.99 10 2 C10 2.66 10 3.32 10 4 C10.66 4 11.32 4 12 4 C12.33 4.99 12.66 5.98 13 7 C8.1725201 5.58707905 4.2837641 3.57025846 0 1 C0 0.67 0 0.34 0 0 Z " fill="#D8DBF1" transform="translate(102,45)"/>
<path d="M0 0 C0 0.33 0 0.66 0 1 C-4.95 1 -9.9 1 -15 1 C-14.67 0.34 -14.34 -0.32 -14 -1 C-8.78217876 -2.52716719 -5.06434289 -1.48437636 0 0 Z " fill="#CDCDEB" transform="translate(94,21)"/>
<path d="M0 0 C-0.33 5.61 -0.66 11.22 -1 17 C-1.33 17 -1.66 17 -2 17 C-2.33 11.72 -2.66 6.44 -3 1 C-1 0 -1 0 0 0 Z " fill="#CACBEA" transform="translate(80,123)"/>
<path d="M0 0 C0.99 0 1.98 0 3 0 C1.63055898 2.94956528 0.12169591 5.52468811 -2 8 C-2.66 8 -3.32 8 -4 8 C-2.25 2.25 -2.25 2.25 0 0 Z " fill="#D7DAEF" transform="translate(47,35)"/>
<path d="M0 0 C3.63 1.65 7.26 3.3 11 5 C11 5.33 11 5.66 11 6 C9.02 6 7.04 6 5 6 C4.67 5.01 4.34 4.02 4 3 C2.68 3 1.36 3 0 3 C0 2.01 0 1.02 0 0 Z " fill="#DADEEF" transform="translate(111,27)"/>
<path d="M0 0 C1.2065625 0.0309375 1.2065625 0.0309375 2.4375 0.0625 C-0.44388209 2.30357496 -3.30929343 4.39418894 -6.5625 6.0625 C-7.5525 5.7325 -8.5425 5.4025 -9.5625 5.0625 C-8.16933123 2.27616246 -6.40269484 2.12757306 -3.5625 1.0625 C-2.5625 0.0625 -2.5625 0.0625 0 0 Z " fill="#DADDEF" transform="translate(176.5625,162.9375)"/>
<path d="M0 0 C0.99 0.33 1.98 0.66 3 1 C1.02579865 3.52259061 0.03254358 3.9929808 -3.1875 4.6875 C-4.5796875 4.8421875 -4.5796875 4.8421875 -6 5 C-2.25 1.125 -2.25 1.125 0 0 Z " fill="#CBCDEA" transform="translate(144,130)"/>
<path d="M0 0 C0.66 0.33 1.32 0.66 2 1 C2 4.3 2 7.6 2 11 C1.34 11 0.68 11 0 11 C-1.35015859 6.94952424 -0.62084998 4.2079832 0 0 Z " fill="#CBCDEA" transform="translate(160,106)"/>
<path d="M0 0 C0.99 0.33 1.98 0.66 3 1 C0.3401439 4.44216672 -2.90288286 4.99504674 -7 6 C-7 5.01 -7 4.02 -7 3 C-3.535 2.505 -3.535 2.505 0 2 C0 1.34 0 0.68 0 0 Z " fill="#D8DAEF" transform="translate(81,218)"/>
<path d="M0 0 C0.99 0.66 1.98 1.32 3 2 C0.69 3.65 -1.62 5.3 -4 7 C-4.66 6.67 -5.32 6.34 -6 6 C-4 3 -4 3 -1 1 C-0.67 0.67 -0.34 0.34 0 0 Z " fill="#D5D6EF" transform="translate(152,125)"/>
<path d="M0 0 C0.33 0.99 0.66 1.98 1 3 C-3.75 7 -3.75 7 -6 7 C-5.34 5.68 -4.68 4.36 -4 3 C-3.34 3 -2.68 3 -2 3 C-2 2.34 -2 1.68 -2 1 C-1.34 0.67 -0.68 0.34 0 0 Z " fill="#C9D0ED" transform="translate(89,212)"/>
<path d="M0 0 C-2.3129482 2.3129482 -3.47904875 2.49580975 -6.625 3.125 C-7.44226563 3.29257813 -8.25953125 3.46015625 -9.1015625 3.6328125 C-10.04128906 3.81457031 -10.04128906 3.81457031 -11 4 C-9 1 -9 1 -7.1875 0.3125 C-4.76407022 -0.03370425 -2.44491162 -0.06791421 0 0 Z " fill="#D7DCED" transform="translate(167,169)"/>
<path d="M0 0 C0.86625 0.3403125 0.86625 0.3403125 1.75 0.6875 C-2 3.6875 -2 3.6875 -4.25 3.6875 C-4.58 4.6775 -4.91 5.6675 -5.25 6.6875 C-5.58 5.3675 -5.91 4.0475 -6.25 2.6875 C-2.80384615 -0.38942308 -2.80384615 -0.38942308 0 0 Z " fill="#DFE1F1" transform="translate(46.25,162.3125)"/>
<path d="M0 0 C0.99 0 1.98 0 3 0 C2.01 2.97 1.02 5.94 0 9 C-2 5 -2 5 -1.125 2.25 C-0.75375 1.5075 -0.3825 0.765 0 0 Z " fill="#D7D9EF" transform="translate(57,52)"/>
<path d="M0 0 C3.91211733 1.15585285 6.8745041 2.35534962 10 5 C6.63295715 5.2295711 4.58629732 5.33943529 1.625 3.625 C1.08875 3.08875 0.5525 2.5525 0 2 C0 1.34 0 0.68 0 0 Z " fill="#D8DAEF" transform="translate(122,33)"/>
<path d="M0 0 C0.66 0.99 1.32 1.98 2 3 C0.02 3.99 -1.96 4.98 -4 6 C-4.66 5.34 -5.32 4.68 -6 4 C-4.02 2.68 -2.04 1.36 0 0 Z " fill="#D8D9F3" transform="translate(140,112)"/>
<path d="M0 0 C2.97 1.65 5.94 3.3 9 5 C8.34 5.66 7.68 6.32 7 7 C4.5 5.625 4.5 5.625 2 4 C2 3.34 2 2.68 2 2 C1.34 2 0.68 2 0 2 C0 1.34 0 0.68 0 0 Z " fill="#D9DEF1" transform="translate(135,84)"/>
<path d="M0 0 C0.33 0.66 0.66 1.32 1 2 C1.66 2 2.32 2 3 2 C2.34 3.98 1.68 5.96 1 8 C-1 5 -1 5 -0.625 2.3125 C-0.41875 1.549375 -0.2125 0.78625 0 0 Z " fill="#DADBF4" transform="translate(79,77)"/>
<path d="M0 0 C0.556875 0.7734375 0.556875 0.7734375 1.125 1.5625 C0.795 2.2225 0.465 2.8825 0.125 3.5625 C-2.515 2.5725 -5.155 1.5825 -7.875 0.5625 C-7.875 0.2325 -7.875 -0.0975 -7.875 -0.4375 C-2.33653846 -1.79134615 -2.33653846 -1.79134615 0 0 Z " fill="#DADBF0" transform="translate(99.875,41.4375)"/>
<path d="" fill="#FFFFFF" transform="translate(0,0)"/>
<path d="" fill="#FFFFFF" transform="translate(0,0)"/>
<path d="" fill="#FFFFFF" transform="translate(0,0)"/>
<path d="" fill="#FFFFFF" transform="translate(0,0)"/>
<path d="" fill="#FFFFFF" transform="translate(0,0)"/>
<path d="" fill="#FFFFFF" transform="translate(0,0)"/>
<path d="" fill="#FFFFFF" transform="translate(0,0)"/>
<path d="" fill="#FFFFFF" transform="translate(0,0)"/>
<path d="" fill="#FFFFFF" transform="translate(0,0)"/>
<path d="" fill="#FFFFFF" transform="translate(0,0)"/>
<path d="" fill="#FFFFFF" transform="translate(0,0)"/>
<path d="" fill="#FFFFFF" transform="translate(0,0)"/>
<path d="" fill="#FFFFFF" transform="translate(0,0)"/>
<path d="" fill="#FFFFFF" transform="translate(0,0)"/>
<path d="" fill="#FFFFFF" transform="translate(0,0)"/>
</svg>
